<?xml version="1.0" encoding="UTF-8"?>
<svg version="1.1" xmlns="http://www.w3.org/2000/svg" width="35" height="33">
<path d="M0 0 C10.89 0 21.78 0 33 0 C35.59217969 7.77653908 35.59217969 11.22346092 33 19 C22.11 19 11.22 19 0 19 C0 12.73 0 6.46 0 0 Z " fill="#00FF00" transform="translate(0,7)"/>
<path d="M0 0 C10.89 0 21.78 0 33 0 C35.59217969 7.77653908 35.59217969 11.22346092 33 19 C22.11 19 11.22 19 0 19 C0 12.73 0 6.46 0 0 Z M2 2 C2 6.95 2 11.9 2 17 C11.57 17 21.14 17 31 17 C31 12.05 31 7.1 31 2 C21.43 2 11.86 2 2 2 Z " fill="#C8C8C8" transform="translate(0,7)"/>
<path d="M0 0 C1.65 0 3.3 0 5 0 C5 4.95 5 9.9 5 15 C3.35 15 1.7 15 0 15 C0 10.05 0 5.1 0 0 Z " fill="#010101" transform="translate(26,9)"/>
</svg>
