<?xml version="1.0" standalone="no"?>
<!DOCTYPE svg PUBLIC "-//W3C//DTD SVG 20010904//EN"
 "http://www.w3.org/TR/2001/REC-SVG-20010904/DTD/svg10.dtd">
<svg version="1.0" xmlns="http://www.w3.org/2000/svg"
 width="35.000000pt" height="33.000000pt" viewBox="0 0 35.000000 33.000000"
 preserveAspectRatio="xMidYMid meet">

<g transform="translate(0.000000,33.000000) scale(0.100000,-0.100000)"
fill="#000000" stroke="none">
<path d="M0 295 l0 -35 165 0 165 0 0 -29 c0 -17 5 -33 10 -36 6 -4 10 20 10
64 l0 71 -175 0 -175 0 0 -35z"/>
<path d="M10 165 l0 -85 155 0 155 0 0 85 0 85 -155 0 -155 0 0 -85z m270 0
l0 -75 -130 0 -130 0 0 75 0 75 130 0 130 0 0 -75z"/>
<path d="M337 123 c-4 -3 -7 -17 -7 -30 l0 -23 -165 0 -165 0 0 -35 0 -35 175
0 175 0 0 65 c0 65 -1 71 -13 58z"/>
</g>
</svg>
